HIERARCHY
ROOT mixamorig:Hips
{
	OFFSET 0.000000 201.639420 0.000000
	CHANNELS 6 Xposition Yposition Zposition Xrotation Yrotation Zrotation
	JOINT mixamorig:Spine
	{
		OFFSET 0.006200 19.524994 -2.481800
		CHANNELS 3 Xrotation Yrotation Zrotation
		JOINT mixamorig:Spine1
		{
			OFFSET -0.000900 22.835007 -2.825400
			CHANNELS 3 Xrotation Yrotation Zrotation
			JOINT mixamorig:Spine2
			{
				OFFSET -0.020600 26.552490 -3.193300
				CHANNELS 3 Xrotation Yrotation Zrotation
				JOINT mixamorig:Neck
				{
					OFFSET -0.060000 30.701813 1.352200
					CHANNELS 3 Xrotation Yrotation Zrotation
					JOINT mixamorig:Head
					{
						OFFSET -0.087200 22.547607 3.670900
						CHANNELS 3 Xrotation Yrotation Zrotation
						JOINT mixamorig:HeadTop_End
						{
							OFFSET -0.830600 40.355194 7.893500
							CHANNELS 3 Xrotation Yrotation Zrotation
							End Site
							{
								OFFSET 0.000000 30.592346 0.000000
							}
						}
						JOINT mixamorig:RightEye
						{
							OFFSET -6.302100 18.118591 16.197100
							CHANNELS 3 Xrotation Yrotation Zrotation
							End Site
							{
								OFFSET 0.000000 30.592346 0.000000
							}
						}
						JOINT mixamorig:LeftEye
						{
							OFFSET 6.741500 18.382690 16.401899
							CHANNELS 3 Xrotation Yrotation Zrotation
							End Site
							{
								OFFSET 0.000000 30.592346 0.000000
							}
						}
					}
				}
				JOINT mixamorig:LeftShoulder
				{
					OFFSET 11.924900 18.230499 1.425400
					CHANNELS 3 Xrotation Yrotation Zrotation
					JOINT mixamorig:LeftArm
					{
						OFFSET 25.435989 -0.697632 -5.229300
						CHANNELS 3 Xrotation Yrotation Zrotation
						JOINT mixamorig:LeftForeArm
						{
							OFFSET 54.684776 0.000000 0.000000
							CHANNELS 3 Xrotation Yrotation Zrotation
							JOINT mixamorig:LeftHand
							{
								OFFSET 55.098175 0.000000 0.000000
								CHANNELS 3 Xrotation Yrotation Zrotation
								JOINT mixamorig:LeftHandMiddle1
								{
									OFFSET 23.369751 0.000000 0.000000
									CHANNELS 3 Xrotation Yrotation Zrotation
									JOINT mixamorig:LeftHandMiddle2
									{
										OFFSET 6.378677 0.000000 0.000000
										CHANNELS 3 Xrotation Yrotation Zrotation
										JOINT mixamorig:LeftHandMiddle3
										{
											OFFSET 6.148331 0.000000 0.000000
											CHANNELS 3 Xrotation Yrotation Zrotation
											JOINT mixamorig:LeftHandMiddle4
											{
												OFFSET 6.582504 0.000000 0.000000
												CHANNELS 3 Xrotation Yrotation Zrotation
												End Site
												{
													OFFSET -1.168900 6.395691 1.028606
												}
											}
										}
									}
								}
								JOINT mixamorig:LeftHandThumb1
								{
									OFFSET 7.235672 -3.848206 5.434273
									CHANNELS 3 Xrotation Yrotation Zrotation
									JOINT mixamorig:LeftHandThumb2
									{
										OFFSET 6.568451 -3.792297 3.792300
										CHANNELS 3 Xrotation Yrotation Zrotation
										JOINT mixamorig:LeftHandThumb3
										{
											OFFSET 6.063080 -3.500519 3.500518
											CHANNELS 3 Xrotation Yrotation Zrotation
											JOINT mixamorig:LeftHandThumb4
											{
												OFFSET 4.793182 -2.767334 2.767349
												CHANNELS 3 Xrotation Yrotation Zrotation
												End Site
												{
													OFFSET 0.101639 6.054260 1.275483
												}
											}
										}
									}
								}
								JOINT mixamorig:LeftHandIndex1
								{
									OFFSET 23.101074 -0.309540 4.992809
									CHANNELS 3 Xrotation Yrotation Zrotation
									JOINT mixamorig:LeftHandIndex2
									{
										OFFSET 6.226883 0.000000 0.000000
										CHANNELS 3 Xrotation Yrotation Zrotation
										JOINT mixamorig:LeftHandIndex3
										{
											OFFSET 6.094330 0.000000 0.000000
											CHANNELS 3 Xrotation Yrotation Zrotation
											JOINT mixamorig:LeftHandIndex4
											{
												OFFSET 5.482605 0.000000 0.000000
												CHANNELS 3 Xrotation Yrotation Zrotation
												End Site
												{
													OFFSET -1.427902 5.233032 0.797164
												}
											}
										}
									}
								}
								JOINT mixamorig:LeftHandRing1
								{
									OFFSET 22.299240 0.021149 -3.964172
									CHANNELS 3 Xrotation Yrotation Zrotation
									JOINT mixamorig:LeftHandRing2
									{
										OFFSET 6.321869 0.000000 0.000000
										CHANNELS 3 Xrotation Yrotation Zrotation
										JOINT mixamorig:LeftHandRing3
										{
											OFFSET 5.899796 0.000000 0.000000
											CHANNELS 3 Xrotation Yrotation Zrotation
											JOINT mixamorig:LeftHandRing4
											{
												OFFSET 6.517899 0.000000 0.000000
												CHANNELS 3 Xrotation Yrotation Zrotation
												End Site
												{
													OFFSET -1.637299 6.232208 0.980890
												}
											}
										}
									}
								}
								JOINT mixamorig:LeftHandPinky1
								{
									OFFSET 20.463791 -0.302338 -8.562233
									CHANNELS 3 Xrotation Yrotation Zrotation
									JOINT mixamorig:LeftHandPinky2
									{
										OFFSET 6.908646 0.000000 0.000000
										CHANNELS 3 Xrotation Yrotation Zrotation
										JOINT mixamorig:LeftHandPinky3
										{
											OFFSET 4.622849 0.000000 0.000000
											CHANNELS 3 Xrotation Yrotation Zrotation
											JOINT mixamorig:LeftHandPinky4
											{
												OFFSET 5.216080 0.000000 0.000000
												CHANNELS 3 Xrotation Yrotation Zrotation
												End Site
												{
													OFFSET -0.606308 5.116241 0.814926
												}
											}
										}
									}
								}
							}
						}
					}
				}
				JOINT mixamorig:RightShoulder
				{
					OFFSET -12.001300 18.284088 1.348900
					CHANNELS 3 Xrotation Yrotation Zrotation
					JOINT mixamorig:RightArm
					{
						OFFSET -25.308500 -0.751312 -5.164599
						CHANNELS 3 Xrotation Yrotation Zrotation
						JOINT mixamorig:RightForeArm
						{
							OFFSET -54.684429 0.000000 0.000000
							CHANNELS 3 Xrotation Yrotation Zrotation
							JOINT mixamorig:RightHand
							{
								OFFSET -55.150291 0.000000 0.000000
								CHANNELS 3 Xrotation Yrotation Zrotation
								JOINT mixamorig:RightHandMiddle1
								{
									OFFSET -23.317566 0.000000 0.000000
									CHANNELS 3 Xrotation Yrotation Zrotation
									JOINT mixamorig:RightHandMiddle2
									{
										OFFSET -6.378403 0.000000 0.000000
										CHANNELS 3 Xrotation Yrotation Zrotation
										JOINT mixamorig:RightHandMiddle3
										{
											OFFSET -6.148193 0.000000 0.000000
											CHANNELS 3 Xrotation Yrotation Zrotation
											JOINT mixamorig:RightHandMiddle4
											{
												OFFSET -6.583389 0.000000 0.000000
												CHANNELS 3 Xrotation Yrotation Zrotation
												End Site
												{
													OFFSET 1.171692 6.395905 1.029786
												}
											}
										}
									}
								}
								JOINT mixamorig:RightHandThumb1
								{
									OFFSET -7.190521 -3.860474 5.435846
									CHANNELS 3 Xrotation Yrotation Zrotation
									JOINT mixamorig:RightHandThumb2
									{
										OFFSET -6.567429 -3.791718 3.791708
										CHANNELS 3 Xrotation Yrotation Zrotation
										JOINT mixamorig:RightHandThumb3
										{
											OFFSET -6.062469 -3.500153 3.500166
											CHANNELS 3 Xrotation Yrotation Zrotation
											JOINT mixamorig:RightHandThumb4
											{
												OFFSET -4.792618 -2.767029 2.767022
												CHANNELS 3 Xrotation Yrotation Zrotation
												End Site
												{
													OFFSET -0.100327 6.053253 1.276754
												}
											}
										}
									}
								}
								JOINT mixamorig:RightHandIndex1
								{
									OFFSET -23.048981 -0.310791 4.992554
									CHANNELS 3 Xrotation Yrotation Zrotation
									JOINT mixamorig:RightHandIndex2
									{
										OFFSET -6.227539 0.000000 0.000000
										CHANNELS 3 Xrotation Yrotation Zrotation
										JOINT mixamorig:RightHandIndex3
										{
											OFFSET -6.095047 0.000000 0.000000
											CHANNELS 3 Xrotation Yrotation Zrotation
											JOINT mixamorig:RightHandIndex4
											{
												OFFSET -5.484772 0.000000 0.000000
												CHANNELS 3 Xrotation Yrotation Zrotation
												End Site
												{
													OFFSET 1.420593 5.237305 0.797056
												}
											}
										}
									}
								}
								JOINT mixamorig:RightHandRing1
								{
									OFFSET -22.246323 0.020569 -3.963762
									CHANNELS 3 Xrotation Yrotation Zrotation
									JOINT mixamorig:RightHandRing2
									{
										OFFSET -6.322128 0.000000 0.000000
										CHANNELS 3 Xrotation Yrotation Zrotation
										JOINT mixamorig:RightHandRing3
										{
											OFFSET -5.900024 0.000000 0.000000
											CHANNELS 3 Xrotation Yrotation Zrotation
											JOINT mixamorig:RightHandRing4
											{
												OFFSET -6.518356 0.000000 0.000000
												CHANNELS 3 Xrotation Yrotation Zrotation
												End Site
												{
													OFFSET 1.636398 6.232697 0.982186
												}
											}
										}
									}
								}
								JOINT mixamorig:RightHandPinky1
								{
									OFFSET -20.411011 -0.303314 -8.561701
									CHANNELS 3 Xrotation Yrotation Zrotation
									JOINT mixamorig:RightHandPinky2
									{
										OFFSET -6.907349 0.000000 0.000000
										CHANNELS 3 Xrotation Yrotation Zrotation
										JOINT mixamorig:RightHandPinky3
										{
											OFFSET -4.623840 0.000000 0.000000
											CHANNELS 3 Xrotation Yrotation Zrotation
											JOINT mixamorig:RightHandPinky4
											{
												OFFSET -5.218353 0.000000 0.000000
												CHANNELS 3 Xrotation Yrotation Zrotation
												End Site
												{
													OFFSET 0.602097 5.118835 0.816273
												}
											}
										}
									}
								}
							}
						}
					}
				}
			}
		}
	}
	JOINT mixamorig:LeftUpLeg
	{
		OFFSET 18.168400 -13.561905 -0.039000
		CHANNELS 3 Xrotation Yrotation Zrotation
		JOINT mixamorig:LeftLeg
		{
			OFFSET 0.577358 -80.825211 -3.695000
			CHANNELS 3 Xrotation Yrotation Zrotation
			JOINT mixamorig:LeftFoot
			{
				OFFSET -0.577356 -83.370262 -6.520700
				CHANNELS 3 Xrotation Yrotation Zrotation
				JOINT mixamorig:LeftToeBase
				{
					OFFSET 0.750401 -20.798306 25.135401
					CHANNELS 3 Xrotation Yrotation Zrotation
					JOINT mixamorig:LeftToe_End
					{
						OFFSET -0.000500 0.001200 19.917799
						CHANNELS 3 Xrotation Yrotation Zrotation
						End Site
						{
							OFFSET 0.000000 19.917805 0.000000
						}
					}
				}
			}
		}
	}
	JOINT mixamorig:RightUpLeg
	{
		OFFSET -18.162500 -13.585098 -0.041000
		CHANNELS 3 Xrotation Yrotation Zrotation
		JOINT mixamorig:RightLeg
		{
			OFFSET -0.595024 -80.945297 -3.631900
			CHANNELS 3 Xrotation Yrotation Zrotation
			JOINT mixamorig:RightFoot
			{
				OFFSET 0.595024 -83.218193 -6.561200
				CHANNELS 3 Xrotation Yrotation Zrotation
				JOINT mixamorig:RightToeBase
				{
					OFFSET -0.753601 -20.807106 25.115000
					CHANNELS 3 Xrotation Yrotation Zrotation
					JOINT mixamorig:RightToe_End
					{
						OFFSET 0.000299 0.001700 19.918200
						CHANNELS 3 Xrotation Yrotation Zrotation
						End Site
						{
							OFFSET 0.000000 19.918203 0.000000
						}
					}
				}
			}
		}
	}
}
MOTION
Frames: 5
Frame Time: 0.033333
-0.846031 190.040802 -1.006992 -1.498057 6.207708 2.997542 5.550179 -0.002554 -0.495637 11.100326 0.009739 -0.734989 11.100325 0.009741 -0.734989 -10.509803 -1.525007 -3.378781 -17.396610 -3.946746 2.467864 -0.000000 -0.000000 -0.000000 -0.000000 -0.000000 -0.000000 -0.000000 -0.000000 -0.000000 9.458439 -6.444345 -14.996466 -9.688687 10.601563 -35.774502 0.001842 -55.255940 0.168463 23.869184 -12.509994 16.445992 1.641873 7.127199 -4.239664 -0.187949 -0.789344 -15.969018 0.000003 -0.000000 0.000004 -0.000000 -0.000000 -0.000000 7.350855 -14.484210 -10.934822 -1.067072 0.182836 1.946077 0.000008 -0.000000 -0.000000 0.000001 0.000001 -0.000004 5.776119 -9.584530 -10.641317 0.033773 0.666534 -10.636456 -0.000007 -0.000001 -0.000005 0.000001 0.000001 -0.000000 1.677306 11.039952 -8.046056 -0.183074 -2.876880 -23.912166 -0.000001 0.000006 0.000007 -0.000003 0.000001 0.000003 0.734609 28.047562 -16.218786 -0.849532 -6.142176 -29.148256 -0.000006 -0.000000 -0.000000 -0.000001 -0.000001 0.000002 -3.413145 0.044912 -0.357072 -8.521089 -11.378045 60.672591 -0.093823 56.128893 -0.117867 33.242292 -12.830439 -17.731934 -1.738477 -1.670994 3.393798 -0.252701 0.798107 21.448264 -0.000001 -0.000007 -0.000002 0.000006 -0.000001 -0.000001 -4.978396 12.391679 9.407279 -1.210141 -0.220450 -2.121020 -0.000001 -0.000003 -0.000001 -0.000002 -0.000001 0.000001 10.258593 13.576579 6.067481 0.012526 -0.647894 4.076590 0.000007 0.000002 -0.000004 0.000002 0.000002 0.000001 -0.824278 -13.700949 18.348835 -0.242210 2.213608 16.221218 0.000001 -0.000002 -0.000000 0.000001 0.000000 0.000005 -4.380728 -23.900580 30.060308 -0.233920 5.125292 12.870334 -0.000003 -0.000005 0.000001 -0.000002 -0.000000 0.000001 -24.087968 -6.434337 9.281407 27.493839 -0.107708 -1.033329 -2.360940 -2.992803 -12.956353 0.002990 -0.026199 0.062609 -0.000000 0.000000 -0.000000 -22.556112 -12.044370 -19.596649 40.187522 0.062134 1.447719 -15.639880 -7.989171 9.075605 0.613169 -0.189152 0.450542 0.000000 0.000001 -0.000000 
-0.603735 189.888443 -1.537553 -1.495481 6.222968 2.988763 5.572048 0.004121 -0.493421 11.144073 0.024879 -0.724303 11.144069 0.024882 -0.724304 -10.529692 -1.496322 -3.370677 -17.497278 -3.750121 2.377001 0.000000 -0.000000 -0.000000 0.000000 -0.000000 -0.000000 0.000000 -0.000000 -0.000000 9.431381 -6.400197 -15.211200 -9.342313 10.528042 -35.566663 0.261931 -56.152915 0.380974 23.143381 -11.951264 15.155005 1.611896 7.001208 -4.396990 -0.190378 -0.802686 -16.136061 0.000001 -0.000003 0.000007 -0.000003 0.000000 0.000003 7.403634 -13.929099 -10.892642 -1.209690 0.223912 2.100837 0.000008 -0.000000 -0.000008 0.000002 0.000000 -0.000001 5.666381 -9.495094 -10.894941 0.035533 0.669084 -10.793716 -0.000007 -0.000001 -0.000005 0.000002 -0.000003 0.000004 1.659121 11.058804 -8.138197 -0.188802 -2.877251 -23.963959 -0.000006 0.000006 0.000011 0.000000 0.000000 -0.000000 0.824083 27.858422 -16.346740 -0.850147 -6.135721 -29.097825 0.000004 -0.000000 -0.000004 -0.000003 0.000000 0.000001 -3.468969 0.194032 0.312383 -7.645914 -11.616639 59.976991 0.162874 58.031247 -0.278615 31.994795 -12.452348 -17.503135 -1.753252 -1.631957 3.636828 -0.254247 0.806239 21.581646 -0.000002 -0.000004 0.000003 0.000005 0.000006 0.000002 -4.667435 12.080874 9.378743 -1.562715 -0.354268 -2.327182 -0.000002 -0.000002 -0.000002 -0.000002 -0.000002 -0.000002 10.035648 13.584992 6.377996 0.014506 -0.656189 4.295564 0.000004 0.000008 -0.000002 0.000002 -0.000002 -0.000002 -0.833095 -13.579855 18.393452 -0.249986 2.234912 16.420272 0.000002 0.000001 -0.000001 0.000000 0.000005 0.000003 -4.282055 -23.800337 29.815698 -0.252030 5.162494 13.091038 0.000000 -0.000003 0.000003 -0.000001 0.000000 0.000003 -24.512429 -6.361888 9.238527 27.778217 -0.373533 -1.056802 -2.144974 -2.949909 -12.716676 0.213088 0.153288 -0.006496 -0.000000 0.000000 0.000000 -22.868955 -11.881588 -19.614398 40.519957 -0.161521 1.444870 -15.136666 -7.877848 9.349154 0.022197 -0.169185 -0.154788 -0.000000 -0.000000 0.000000 
-0.439097 189.748337 -2.154510 -1.517041 6.257195 2.993411 5.586764 0.035347 -0.500290 11.173564 0.088216 -0.732165 11.173564 0.088215 -0.732165 -10.494804 -1.443376 -3.313357 -17.618821 -3.620130 2.317472 0.000000 0.000000 -0.000000 0.000000 0.000000 -0.000000 0.000000 0.000000 -0.000000 9.405852 -6.294863 -15.443211 -8.961018 10.385394 -35.423369 0.529879 -57.033049 0.604971 22.467955 -11.337165 13.772732 1.597899 6.900526 -4.621404 -0.193226 -0.818102 -16.329796 0.000002 -0.000002 0.000005 -0.000000 -0.000000 0.000001 7.507114 -13.438901 -10.874851 -1.448014 0.309036 2.268899 0.000004 0.000001 -0.000006 -0.000001 -0.000001 -0.000000 5.532860 -9.435025 -11.242155 0.037478 0.671847 -10.963943 -0.000011 0.000003 -0.000007 -0.000002 0.000003 -0.000005 1.640765 11.051332 -8.308162 -0.194954 -2.878398 -24.024524 -0.000001 0.000008 0.000006 -0.000005 -0.000001 0.000001 0.890406 27.668178 -16.420378 -0.851580 -6.129918 -29.055109 -0.000004 -0.000001 -0.000002 -0.000002 -0.000001 -0.000001 -3.517760 0.387405 0.946344 -6.659639 -11.784565 59.331832 0.419681 60.113499 -0.445242 30.544872 -12.083931 -17.239517 -1.762803 -1.618051 3.906130 -0.256192 0.815885 21.741710 -0.000001 -0.000003 -0.000001 0.000004 -0.000003 0.000003 -4.364725 11.751017 9.363106 -1.952032 -0.508284 -2.524214 -0.000001 -0.000001 -0.000002 -0.000001 0.000002 0.000001 9.796271 13.583461 6.797216 0.016459 -0.664282 4.510171 0.000005 0.000005 0.000001 -0.000003 0.000001 -0.000002 -0.822308 -13.514037 18.462742 -0.257896 2.256305 16.620488 -0.000000 -0.000001 -0.000001 0.000003 -0.000001 0.000001 -4.201448 -23.625860 29.661807 -0.272185 5.203221 13.332594 0.000003 -0.000005 0.000001 -0.000004 -0.000000 -0.000000 -24.994153 -6.208621 9.193714 28.166968 -0.692573 -1.087151 -1.776753 -2.894574 -12.258440 0.270774 0.346057 -0.339533 0.000000 0.000000 0.000000 -23.170939 -11.616221 -19.568031 40.864779 -0.426955 1.439190 -14.816270 -7.715268 9.511029 -0.598588 -0.156050 -0.247345 0.000000 -0.000002 0.000000 
-0.273059 189.612930 -2.860660 -1.521382 6.146106 3.002835 5.588141 0.077323 -0.513557 11.176379 0.172528 -0.752139 11.176375 0.172528 -0.752138 -10.424999 -1.332731 -3.261545 -17.723584 -3.495086 2.260035 -0.000000 -0.000000 -0.000000 -0.000000 -0.000000 -0.000000 -0.000000 -0.000000 -0.000000 9.381582 -6.157519 -15.677355 -8.470136 10.224664 -35.357605 0.800769 -57.966934 0.836226 21.586133 -10.560815 12.242913 1.594333 6.816767 -4.886640 -0.196408 -0.834911 -16.541642 -0.000001 -0.000000 0.000005 -0.000001 0.000000 -0.000003 7.640383 -12.992779 -10.873245 -1.742183 0.419878 2.446052 0.000004 0.000000 -0.000002 0.000000 -0.000000 -0.000001 5.384880 -9.396275 -11.641744 0.039540 0.674739 -11.142669 -0.000009 0.000001 -0.000004 -0.000001 0.000001 -0.000000 1.622499 11.028829 -8.528696 -0.201279 -2.879771 -24.088559 0.000000 0.000006 0.000004 -0.000001 0.000002 -0.000004 0.942527 27.480085 -16.459176 -0.853530 -6.124545 -29.017232 -0.000002 -0.000001 -0.000001 -0.000001 0.000000 -0.000001 -3.555443 0.553100 1.558001 -5.405309 -11.629288 58.779426 0.632770 62.415402 -0.588031 28.826708 -11.819453 -17.068069 -1.768474 -1.621318 4.191352 -0.258400 0.826472 21.918299 -0.000009 -0.000007 -0.000004 0.000005 0.000001 -0.000001 -4.071770 11.403797 9.355808 -2.364102 -0.674785 -2.718308 0.000003 0.000001 -0.000001 0.000004 0.000002 -0.000001 9.545879 13.575558 7.290440 0.018434 -0.672394 4.724464 0.000002 0.000006 -0.000004 -0.000000 -0.000001 0.000000 -0.797879 -13.486470 18.549107 -0.265897 2.277760 16.821504 0.000002 -0.000001 0.000001 0.000002 0.000000 0.000001 -4.132760 -23.401720 29.569463 -0.292918 5.244634 13.578818 0.000000 -0.000005 0.000001 0.000002 0.000000 0.000001 -25.585916 -5.894661 9.156394 28.701220 -1.053897 -1.124753 -1.300257 -2.805723 -11.649072 -0.261198 0.550787 -0.846663 -0.000000 0.000000 -0.000000 -23.526298 -11.206240 -19.498151 41.231731 -0.736974 1.430842 -14.627557 -7.544919 9.491819 -0.761589 -0.149567 -0.152802 0.000000 0.000002 0.000000 
-0.028674 189.473999 -3.666653 -1.475975 5.763906 3.020823 5.569988 0.116095 -0.531221 11.140146 0.250621 -0.777802 11.140153 0.250623 -0.777801 -10.340176 -1.131214 -3.270037 -17.773277 -3.313291 2.175586 0.000000 -0.000000 -0.000000 0.000000 -0.000000 -0.000000 0.000000 -0.000000 -0.000000 9.358171 -6.017408 -15.898648 -7.745402 10.081297 -35.432631 1.045167 -59.116325 1.050886 19.867647 -9.346503 10.591789 1.595627 6.741507 -5.166469 -0.199769 -0.852418 -16.762826 -0.000001 -0.000001 0.000005 -0.000000 -0.000000 0.000004 7.782751 -12.569880 -10.878800 -2.052618 0.538171 2.627263 0.000004 0.000002 -0.000003 0.000002 0.000002 -0.000000 5.231818 -9.371219 -12.052405 0.041656 0.677673 -11.325525 -0.000008 0.000003 -0.000010 0.000001 -0.000001 0.000001 1.604669 11.002503 -8.772449 -0.207506 -2.881020 -24.150803 -0.000003 0.000004 0.000010 0.000001 0.000001 -0.000001 0.989102 27.297317 -16.482368 -0.855715 -6.119324 -28.981562 -0.000001 -0.000000 -0.000003 0.000000 -0.000000 0.000000 -3.578162 0.619128 2.160353 -3.542867 -10.714090 58.292693 0.706267 65.052211 -0.633509 26.924373 -11.730601 -17.256205 -1.771767 -1.633849 4.482209 -0.260732 0.837423 22.101155 -0.000008 -0.000004 -0.000003 0.000003 0.000002 -0.000003 -3.789999 11.040847 9.352261 -2.785130 -0.846157 -2.914704 -0.000002 -0.000002 -0.000003 0.000003 0.000002 -0.000000 9.289557 13.565282 7.823171 0.020495 -0.680611 4.942432 0.000004 0.000003 0.000002 0.000002 0.000001 -0.000001 -0.765803 -13.480143 18.644956 -0.274011 2.299202 17.022913 0.000001 -0.000003 0.000001 0.000000 -0.000000 0.000004 -4.069479 -23.152610 29.509976 -0.312756 5.283877 13.813340 0.000002 -0.000007 0.000002 -0.000001 0.000001 -0.000001 -26.411990 -5.357270 9.132529 29.568032 -1.437444 -1.175836 -1.049982 -2.635546 -10.964590 -0.316236 0.743784 -1.234411 -0.000000 -0.000000 0.000000 -24.015369 -10.578226 -19.502026 41.555772 -0.988947 1.425841 -14.247794 -7.447969 9.646580 -0.888074 -0.133389 -0.139941 0.000000 -0.000000 0.000000 
